<?xml version="1.0" standalone="no"?>
<!DOCTYPE svg PUBLIC "-//W3C//DTD SVG 20010904//EN"
 "http://www.w3.org/TR/2001/REC-SVG-20010904/DTD/svg10.dtd">
<svg version="1.0" xmlns="http://www.w3.org/2000/svg"
 width="512.000000pt" height="512.000000pt" viewBox="0 0 512.000000 512.000000"
 preserveAspectRatio="xMidYMid meet">
<metadata>
Created by potrace 1.11, written by Peter Selinger 2001-2013
</metadata>
<g transform="translate(0.000000,512.000000) scale(0.100000,-0.100000)"
fill="#000000" stroke="none">
<path d="M2635 5073 c-35 -9 -63 -43 -86 -106 -79 -218 -198 -482 -287 -637
-46 -80 -126 -205 -134 -208 -5 -2 -8 -10 -8 -18 0 -8 -4 -14 -8 -14 -5 0 -13
-10 -19 -22 -10 -22 -201 -271 -239 -313 -11 -11 -37 -41 -58 -65 -22 -25 -69
-77 -105 -115 -36 -39 -120 -129 -186 -199 -66 -71 -129 -138 -140 -150 -134
-142 -297 -375 -370 -528 -45 -96 -98 -235 -110 -288 -56 -252 -70 -369 -69
-600 0 -166 4 -221 25 -334 99 -551 472 -1033 980 -1269 246 -115 457 -161
734 -161 119 -1 280 10 294 18 3 2 24 7 46 10 155 25 440 134 561 216 25 16
48 30 51 30 3 0 40 26 82 57 363 273 602 648 686 1078 35 177 40 537 11 750
-3 17 -8 57 -12 90 -4 33 -8 62 -9 65 -1 3 -5 30 -9 60 -33 221 -134 601 -221
831 -105 274 -210 500 -339 727 -20 35 -36 66 -36 68 0 11 -204 320 -270 409
-169 228 -357 428 -500 529 -96 69 -198 104 -255 89z"/>
</g>
</svg>
