<?xml version="1.0" encoding="UTF-8" standalone="no"?>
<!DOCTYPE svg PUBLIC "-//W3C//DTD SVG 1.1//EN" "http://www.w3.org/Graphics/SVG/1.1/DTD/svg11.dtd">
<svg width="100%" height="100%" viewBox="0 0 803 591" version="1.1" xmlns="http://www.w3.org/2000/svg" xmlns:xlink="http://www.w3.org/1999/xlink" xml:space="preserve" xmlns:serif="http://www.serif.com/" style="fill-rule:evenodd;clip-rule:evenodd;stroke-linejoin:round;stroke-miterlimit:2;">
    <rect x="464.906" y="218.808" width="337.121" height="9.889" style="fill:rgb(230,230,230);"/>
    <rect x="492.774" y="136.101" width="85.404" height="85.404" style="fill:rgb(230,230,230);"/>
    <rect x="509.855" y="153.182" width="51.242" height="51.242" style="fill:rgb(204,204,204);"/>
    <rect x="684.259" y="136.101" width="21.576" height="85.404" style="fill:rgb(230,230,230);"/>
    <rect x="684.259" y="149.586" width="21.576" height="9.889" style="fill:rgb(204,204,204);"/>
    <rect x="684.259" y="192.737" width="21.576" height="9.889" style="fill:rgb(204,204,204);"/>
    <rect x="650.997" y="136.101" width="21.576" height="85.404" style="fill:rgb(230,230,230);"/>
    <rect x="650.997" y="149.586" width="21.576" height="9.889" style="fill:rgb(204,204,204);"/>
    <rect x="650.997" y="192.737" width="21.576" height="9.889" style="fill:rgb(204,204,204);"/>
    <path d="M724.425,135.748L705.089,145.321L742.982,221.858L762.318,212.285L724.425,135.748Z" style="fill:rgb(230,230,230);"/>
    <path d="M730.408,147.832L711.072,157.405L715.46,166.268L734.796,156.695L730.408,147.832Z" style="fill:rgb(204,204,204);"/>
    <path d="M749.554,186.504L730.218,196.077L734.606,204.939L753.942,195.366L749.554,186.504Z" style="fill:rgb(204,204,204);"/>
    <path d="M524.688,170.382L535.554,189.201L546.419,208.02L502.958,208.02L524.688,170.382Z" style="fill:rgb(230,230,230);fill-rule:nonzero;"/>
    <path d="M543.567,173.978L554.432,192.797L565.298,211.616L521.837,211.616L543.567,173.978Z" style="fill:rgb(230,230,230);fill-rule:nonzero;"/>
    <circle cx="551.209" cy="162.171" r="6.293" style="fill:rgb(230,230,230);"/>
    <rect x="464.906" y="83.06" width="337.121" height="9.889" style="fill:rgb(230,230,230);"/>
    <rect x="688.754" y="0.353" width="85.404" height="85.404" style="fill:rgb(230,230,230);"/>
    <rect x="705.835" y="17.434" width="51.242" height="51.242" style="fill:rgb(204,204,204);"/>
    <rect x="561.097" y="0.353" width="21.576" height="85.404" style="fill:rgb(230,230,230);"/>
    <rect x="561.097" y="13.838" width="21.576" height="9.889" style="fill:rgb(204,204,204);"/>
    <rect x="561.097" y="56.99" width="21.576" height="9.889" style="fill:rgb(204,204,204);"/>
    <rect x="594.36" y="0.353" width="21.576" height="85.404" style="fill:rgb(230,230,230);"/>
    <rect x="594.36" y="13.838" width="21.576" height="9.889" style="fill:rgb(204,204,204);"/>
    <rect x="594.36" y="56.99" width="21.576" height="9.889" style="fill:rgb(204,204,204);"/>
    <path d="M504.614,76.537L523.95,86.11L561.843,9.573L542.507,0L504.614,76.537Z" style="fill:rgb(230,230,230);"/>
    <path d="M532.137,20.947L551.472,30.52L555.86,21.658L536.524,12.085L532.137,20.947Z" style="fill:rgb(204,204,204);"/>
    <path d="M512.991,59.619L532.327,69.192L536.714,60.329L517.378,50.756L512.991,59.619Z" style="fill:rgb(204,204,204);"/>
    <path d="M742.244,34.634L720.514,72.272L763.975,72.272L753.109,53.453L742.244,34.634Z" style="fill:rgb(230,230,230);fill-rule:nonzero;"/>
    <path d="M723.365,38.23L701.635,75.868L745.096,75.868L734.231,57.049L723.365,38.23Z" style="fill:rgb(230,230,230);fill-rule:nonzero;"/>
    <circle cx="715.724" cy="26.424" r="6.293" style="fill:rgb(230,230,230);"/>
    <rect x="464.906" y="354.555" width="337.121" height="9.889" style="fill:rgb(230,230,230);"/>
    <rect x="688.754" y="271.848" width="85.404" height="85.404" style="fill:rgb(230,230,230);"/>
    <rect x="705.835" y="288.929" width="51.242" height="51.242" style="fill:rgb(204,204,204);"/>
    <rect x="561.097" y="271.848" width="21.576" height="85.404" style="fill:rgb(230,230,230);"/>
    <rect x="561.097" y="285.333" width="21.576" height="9.889" style="fill:rgb(204,204,204);"/>
    <rect x="561.097" y="328.485" width="21.576" height="9.889" style="fill:rgb(204,204,204);"/>
    <rect x="594.36" y="271.848" width="21.576" height="85.404" style="fill:rgb(230,230,230);"/>
    <rect x="594.36" y="285.333" width="21.576" height="9.889" style="fill:rgb(204,204,204);"/>
    <rect x="594.36" y="328.485" width="21.576" height="9.889" style="fill:rgb(204,204,204);"/>
    <path d="M504.614,348.033L523.95,357.606L561.843,281.068L542.507,271.495L504.614,348.033Z" style="fill:rgb(230,230,230);"/>
    <path d="M532.137,292.442L551.472,302.015L555.86,293.153L536.524,283.58L532.137,292.442Z" style="fill:rgb(204,204,204);"/>
    <path d="M512.991,331.114L532.326,340.687L536.714,331.825L517.378,322.252L512.991,331.114Z" style="fill:rgb(204,204,204);"/>
    <path d="M742.244,306.129L731.379,324.948L720.514,343.768L763.975,343.768L753.109,324.948L742.244,306.129Z" style="fill:rgb(230,230,230);fill-rule:nonzero;"/>
    <path d="M723.365,309.725L712.5,328.544L701.635,347.364L745.096,347.364L734.231,328.544L723.365,309.725Z" style="fill:rgb(230,230,230);fill-rule:nonzero;"/>
    <circle cx="715.724" cy="297.919" r="6.293" style="fill:rgb(230,230,230);"/>
    <ellipse cx="397.129" cy="562.711" rx="397.129" ry="28.205" style="fill:rgb(230,230,230);"/>
    <path d="M707.387,578.506C642.632,566.981 571.819,568.897 497.54,578.506C531.395,549.925 560.615,521.343 526.759,492.762C592.798,506.386 602.048,505.007 675.511,492.762C658.472,521.343 690.347,549.925 707.387,578.506Z" style="fill:rgb(90,32,100);fill-rule:nonzero;"/>
    <path d="M707.387,578.506C642.632,566.981 571.819,568.897 497.54,578.506C531.395,549.925 560.615,521.343 526.759,492.762C592.798,506.386 602.048,505.007 675.511,492.762C658.472,521.343 690.347,549.925 707.387,578.506Z" style="fill:rgb(76,76,126);fill-opacity:0.2;fill-rule:nonzero;"/>
    <path d="M691.592,566.312C636.585,557.113 576.432,558.642 513.335,566.312C542.094,543.498 566.914,520.684 538.155,497.87C594.253,508.745 602.111,507.644 664.515,497.87C650.041,520.684 677.118,543.498 691.592,566.312Z" style="fill:rgb(131,4,215);fill-rule:nonzero;"/>
    <circle cx="670.64" cy="500.244" r="29.309" style="fill:rgb(47,46,65);"/>
    <path d="M537.591,466.249L557.899,469.634L568.053,498.967L538.72,517.019L504.873,466.249L537.591,466.249Z" style="fill:rgb(160,97,106);fill-rule:nonzero;"/>
    <circle cx="595.13" cy="463.993" r="47.385" style="fill:rgb(160,97,106);"/>
    <path d="M333.386,291.377C333.386,291.377 218.308,303.787 198.001,301.531C177.693,299.274 168.667,297.018 168.667,297.018C168.667,297.018 155.129,315.069 161.898,322.967C165.689,327.517 170.277,331.341 175.436,334.249C180.596,337.157 187.847,330.864 196.872,334.249C205.898,337.633 297.283,352.3 313.078,338.762C328.873,325.223 333.386,291.377 333.386,291.377Z" style="fill:rgb(47,46,65);fill-rule:nonzero;"/>
    <path d="M341.283,542.967C341.283,542.967 265.693,521.531 252.155,426.762L252.155,417.736C252.155,417.736 237.198,443.975 231.847,449.326C225.642,455.531 203.642,511.378 204.77,517.019C205.898,522.66 204.77,524.916 204.77,524.916L172.052,521.532L172.052,511.378C172.052,511.378 189.539,458.916 190.667,446.506C191.795,434.095 234.103,347.787 234.103,347.787C234.103,347.787 249.898,315.069 276.975,347.787C304.052,380.505 306.309,403.07 306.309,403.07L341.283,470.762L341.283,542.967Z" style="fill:rgb(47,46,65);fill-rule:nonzero;"/>
    <path d="M172.052,293.633L135.949,281.223C135.949,281.223 102.103,256.402 110,281.223C117.898,306.044 154,360.198 164.154,354.557C174.308,348.916 186.52,334.913 183.799,332.889C181.077,330.864 163.026,316.198 172.052,293.633Z" style="fill:rgb(47,46,65);fill-rule:nonzero;"/>
    <path d="M176.416,504.717L147.272,518.95C147.272,518.95 112.028,524.372 131.683,534.538C151.338,544.705 205.559,555.549 208.271,546.06C210.982,536.572 209.906,520.824 207.055,521.243C204.204,521.661 184.549,523.694 176.416,504.717Z" style="fill:rgb(47,46,65);fill-rule:nonzero;"/>
    <path d="M326.616,468.506C326.616,468.506 311.95,531.685 336.77,545.224C361.591,558.762 535.335,561.019 548.873,536.198C562.412,511.378 555.643,511.378 555.643,511.378L519.54,470.762L548.873,468.506C548.873,468.506 548.873,459.48 538.72,458.352C528.566,457.224 496.976,445.942 469.899,453.839C442.822,461.736 427.027,438.044 427.027,438.044L326.616,468.506Z" style="fill:rgb(87,90,137);fill-rule:nonzero;"/>
    <path d="M307.437,271.069L288.257,375.993L420.258,360.198L443.95,265.428L307.437,271.069Z" style="fill:rgb(63,61,86);fill-rule:nonzero;"/>
    <path d="M311.386,275.018L295.591,368.659L415.745,354.557L438.873,269.377L311.386,275.018Z" style="fill:white;fill-rule:nonzero;"/>
    <path d="M292.77,377.121L288.257,375.993L286.001,380.505L322.104,480.916L325.499,479.618L326.616,473.019L292.77,377.121Z" style="fill:rgb(179,179,179);fill-rule:nonzero;"/>
    <path d="M288.257,374.864L324.36,479.788L460.873,459.48L420.258,360.198L288.257,374.864Z" style="fill:rgb(208,205,225);fill-rule:nonzero;"/>
    <path d="M306.309,371.48L306.309,377.121L406.719,365.839L405.591,360.198L306.309,371.48Z" style="fill:rgb(63,61,86);fill-rule:nonzero;"/>
    <path d="M308.565,382.762L324.36,426.762L427.027,414.352L408.976,372.608L308.565,382.762Z" style="fill:rgb(63,61,86);fill-rule:nonzero;"/>
    <path d="M437.181,444.813L433.796,435.788C433.796,435.788 407.847,390.659 394.309,399.685C380.77,408.711 422.514,452.711 422.514,452.711L436.053,452.711L437.181,444.813Z" style="fill:rgb(160,97,106);fill-rule:nonzero;"/>
    <path d="M351.437,451.583L348.052,438.044C348.052,438.044 339.027,396.3 354.822,398.557C370.617,400.813 375.129,440.3 375.129,440.3L374.001,449.326L351.437,451.583Z" style="fill:rgb(160,97,106);fill-rule:nonzero;"/>
    <path d="M378.514,445.942C378.514,445.942 349.181,441.429 348.052,448.198C346.924,454.967 341.283,556.506 369.488,559.891C397.694,563.275 537.591,577.942 522.925,542.967C508.258,507.993 485.694,512.506 485.694,512.506L389.796,522.66L378.514,445.942Z" style="fill:rgb(87,90,137);fill-rule:nonzero;"/>
    <path d="M467.078,458.916L437.181,438.044L417.437,453.275L442.258,480.352L467.078,458.916Z" style="fill:rgb(87,90,137);fill-rule:nonzero;"/>
    <path d="M386.976,479.224L391.488,522.096L469.335,517.583L401.642,516.455L386.976,479.224Z" style="fill-opacity:0.2;fill-rule:nonzero;"/>
    <circle cx="618.521" cy="472.603" r="56.41" style="fill:rgb(47,46,65);"/>
    <path d="M328.309,307.736L398.258,305.301L405.027,279.531L332.822,281.71L328.309,307.736Z" style="fill:rgb(156,39,175);fill-rule:nonzero;"/>
    <path d="M310.258,322.403L416.309,319.018L417.437,314.505L311.386,318.239L310.258,322.403Z" style="fill:rgb(230,230,230);fill-rule:nonzero;"/>
    <path d="M308.001,333.685L414.053,330.3L415.181,325.787L309.129,329.521L308.001,333.685Z" style="fill:rgb(230,230,230);fill-rule:nonzero;"/>
    <path d="M306.873,342.71L412.924,339.326L414.053,334.813L308.001,338.546L306.873,342.71Z" style="fill:rgb(230,230,230);fill-rule:nonzero;"/>
</svg>
