<?xml version="1.0" encoding="UTF-8" standalone="no"?>
<!DOCTYPE svg PUBLIC "-//W3C//DTD SVG 1.1//EN" "http://www.w3.org/Graphics/SVG/1.1/DTD/svg11.dtd">
<svg width="100%" height="100%" viewBox="0 0 504 491" version="1.1" xmlns="http://www.w3.org/2000/svg" xmlns:xlink="http://www.w3.org/1999/xlink" xml:space="preserve" xmlns:serif="http://www.serif.com/" style="fill-rule:evenodd;clip-rule:evenodd;stroke-linejoin:round;stroke-miterlimit:2;">
    <path d="M251.617,0C112.671,0 -0,112.646 -0,251.617C-0,362.783 72.096,457.1 172.071,490.371C184.646,492.7 189.262,484.913 189.262,478.267C189.262,472.271 189.029,452.446 188.921,431.421C118.921,446.642 104.15,401.733 104.15,401.733C92.704,372.654 76.212,364.917 76.212,364.917C53.383,349.3 77.933,349.621 77.933,349.621C103.2,351.396 116.504,375.554 116.504,375.554C138.946,414.017 175.367,402.896 189.725,396.467C191.987,380.208 198.504,369.104 205.7,362.821C149.812,356.463 91.062,334.883 91.062,238.471C91.062,211.004 100.892,188.554 116.987,170.933C114.375,164.596 105.762,139.004 119.429,104.346C119.429,104.346 140.558,97.587 188.637,130.142C208.708,124.567 230.233,121.771 251.617,121.671C273,121.771 294.542,124.567 314.65,130.142C362.675,97.587 383.775,104.346 383.775,104.346C397.471,139.004 388.858,164.596 386.246,170.933C402.379,188.554 412.137,211.004 412.137,238.471C412.137,335.117 353.275,356.392 297.246,362.621C306.271,370.429 314.312,385.742 314.312,409.217C314.312,442.883 314.025,469.979 314.025,478.267C314.025,484.967 318.55,492.808 331.304,490.342C431.229,457.033 503.233,362.75 503.233,251.617C503.233,112.646 390.579,0 251.617,0" style="fill:rgb(24,23,23);"/>
</svg>
