<?xml version="1.0" encoding="UTF-8" standalone="no"?>
<!DOCTYPE svg PUBLIC "-//W3C//DTD SVG 1.1//EN" "http://www.w3.org/Graphics/SVG/1.1/DTD/svg11.dtd">
<svg width="100%" height="100%" viewBox="0 0 295 57" version="1.1" xmlns="http://www.w3.org/2000/svg" xmlns:xlink="http://www.w3.org/1999/xlink" xml:space="preserve" xmlns:serif="http://www.serif.com/" style="fill-rule:evenodd;clip-rule:evenodd;stroke-linejoin:round;stroke-miterlimit:2;">
    <path d="M183.605,25.498C183.666,26.048 183.697,26.603 183.697,27.163C183.697,27.723 183.9,28.105 184.308,28.309C184.715,28.512 185.438,28.614 186.477,28.614L189.44,28.614C195.325,28.614 198.268,26.292 198.268,21.649L198.268,20.458C198.268,18.32 197.596,16.64 196.252,15.418C194.908,14.196 192.912,13.585 190.264,13.585L187.821,13.585L187.576,13.615L187.057,13.615C186.731,13.656 186.477,13.676 186.293,13.676C185.051,13.676 184.303,13.987 184.048,14.608C183.794,15.229 183.666,17.607 183.666,21.741L183.636,22.291L183.636,23.635L183.605,24.704L183.605,25.498ZM191.578,7.475C193.737,7.475 195.783,7.776 197.718,8.377C199.653,8.977 201.216,9.797 202.407,10.836C203.598,11.874 204.515,13.218 205.156,14.868C205.798,16.517 206.119,18.197 206.119,19.908L206.119,21.405C206.119,26.089 204.388,29.673 200.925,32.158C199.174,33.42 196.455,34.245 192.769,34.632C187.271,35.243 184.379,35.732 184.094,36.098C183.361,37.055 182.994,39.351 182.994,42.987C182.994,46.622 182.75,48.826 182.261,49.6C181.772,50.374 180.678,50.761 178.977,50.761C177.277,50.761 176.238,50.623 175.861,50.348C175.485,50.073 175.296,49.162 175.296,47.614L175.296,46.973L175.388,44.315L175.449,42.971C175.49,42.055 175.51,41.373 175.51,40.925L175.602,38.175L175.663,36.801L175.755,31.974L175.755,30.6L175.785,29.194L175.785,27.117L175.846,24.429L175.846,23.054C175.846,13.992 176.035,9.155 176.411,8.545C176.788,7.934 178.84,7.628 182.567,7.628L189.44,7.475L191.578,7.475Z" style="fill:rgb(64,64,64);fill-rule:nonzero;"/>
    <path d="M245.219,49.081C245.219,50.282 244.303,50.883 242.47,50.883C240.026,50.883 238.529,50.119 237.979,48.592C237.694,47.798 237.552,45.033 237.552,40.298C237.552,35.564 237.073,32.88 236.116,32.249C235.505,31.842 233.036,31.638 228.708,31.638C224.381,31.638 221.901,32.096 221.27,33.013C220.802,33.685 220.567,36.134 220.567,40.359C220.567,44.585 220.354,47.314 219.926,48.546C219.498,49.778 218.297,50.394 216.321,50.394C214.346,50.394 213.246,49.977 213.022,49.142C212.941,48.836 212.9,46.983 212.9,43.582L212.808,36.831L212.961,27.82L212.839,19.144L212.747,13.951L212.717,11.996L212.686,11.049L212.686,10.102C212.686,8.942 213.867,8.361 216.23,8.361C217.879,8.361 218.969,9.043 219.498,10.408C219.783,11.1 219.997,13.091 220.14,16.38C220.282,19.669 220.364,21.395 220.384,21.558C220.628,23.085 221.173,24.154 222.018,24.765C222.863,25.376 226.219,25.682 232.084,25.682C234.792,25.682 236.35,25.147 236.757,24.078C237.165,23.009 237.368,20.499 237.368,16.548C237.368,12.597 237.653,10.164 238.224,9.247C238.794,8.331 240.209,7.872 242.47,7.872C243.753,7.872 244.516,8.183 244.761,8.804C245.005,9.425 245.127,11.996 245.127,16.517L245.127,27.881L245.158,28.981L245.25,31.211L245.219,32.341C245.138,34.622 245.097,37.269 245.097,40.283L245.158,44.774L245.219,46.973L245.219,49.081Z" style="fill:rgb(64,64,64);fill-rule:nonzero;"/>
    <path d="M262.509,25.498C262.57,26.048 262.6,26.603 262.6,27.163C262.6,27.723 262.804,28.105 263.211,28.309C263.619,28.512 264.342,28.614 265.38,28.614L268.343,28.614C274.229,28.614 277.171,26.292 277.171,21.649L277.171,20.458C277.171,18.32 276.499,16.64 275.155,15.418C273.811,14.196 271.815,13.585 269.168,13.585L266.724,13.585L266.48,13.615L265.961,13.615C265.635,13.656 265.38,13.676 265.197,13.676C263.955,13.676 263.206,13.987 262.952,14.608C262.697,15.229 262.57,17.607 262.57,21.741L262.539,22.291L262.539,23.635L262.509,24.704L262.509,25.498ZM270.482,7.475C272.64,7.475 274.687,7.776 276.622,8.377C278.556,8.977 280.119,9.797 281.311,10.836C282.502,11.874 283.418,13.218 284.06,14.868C284.701,16.517 285.022,18.197 285.022,19.908L285.022,21.405C285.022,26.089 283.291,29.673 279.829,32.158C278.078,33.42 275.359,34.245 271.673,34.632C266.174,35.243 263.283,35.732 262.997,36.098C262.264,37.055 261.898,39.351 261.898,42.987C261.898,46.622 261.653,48.826 261.165,49.6C260.676,50.374 259.581,50.761 257.881,50.761C256.18,50.761 255.142,50.623 254.765,50.348C254.388,50.073 254.2,49.162 254.2,47.614L254.2,46.973L254.292,44.315L254.353,42.971C254.393,42.055 254.414,41.373 254.414,40.925L254.505,38.175L254.566,36.801L254.658,31.974L254.658,30.6L254.689,29.194L254.689,27.117L254.75,24.429L254.75,23.054C254.75,13.992 254.938,9.155 255.315,8.545C255.692,7.934 257.743,7.628 261.47,7.628L268.343,7.475L270.482,7.475Z" style="fill:rgb(64,64,64);fill-rule:nonzero;"/>
    <g>
        <path d="M29.081,1.543C22.454,20.918 9.783,19.464 9.783,36.954C9.783,47.605 18.43,56.252 29.081,56.252C39.733,56.252 48.38,47.605 48.38,36.954C48.38,15.388 30.909,-3.798 29.081,1.543Z" style="fill:rgb(97,23,145);"/>
        <path d="M20.981,30.238C16.285,32.947 14.561,38.766 17.133,43.224C19.706,47.682 25.606,49.101 30.302,46.392C27.806,45.32 24.948,43.01 23.089,39.788C21.23,36.566 20.66,32.935 20.981,30.238Z" style="fill:rgb(188,129,229);"/>
    </g>
    <path d="M85.416,7.72L87.065,7.72C89.428,7.72 90.609,8.331 90.609,9.553L90.609,10.072C90.609,10.988 89.642,11.66 87.707,12.088C86.994,12.251 85.034,12.429 81.827,12.623C78.619,12.816 76.603,13.132 75.778,13.57C74.953,14.007 74.368,14.69 74.022,15.616C73.675,16.543 73.502,18.248 73.502,20.733C73.502,23.217 73.986,24.75 74.953,25.33C75.921,25.911 77.85,26.201 80.742,26.201C83.634,26.201 85.523,26.455 86.409,26.964C87.294,27.474 87.737,28.197 87.737,29.133C87.737,30.07 87.33,30.722 86.516,31.088C86.23,31.211 85.294,31.404 83.705,31.669L82.147,31.883C78.298,32.473 75.819,33.349 74.709,34.51C73.599,35.67 72.688,38.888 71.975,44.163C71.69,46.281 71.476,47.482 71.334,47.767C70.824,48.887 70.051,49.447 69.012,49.447C67.973,49.447 67.276,49.208 66.919,48.729C66.563,48.251 66.385,47.299 66.385,45.873L66.324,44.315L66.324,41.108L66.354,40.314L66.354,39.489C66.354,37.412 66.426,35.065 66.568,32.448C66.711,29.831 66.782,26.73 66.782,23.146L66.507,13.951C66.507,12.424 66.65,11.355 66.935,10.744C67.22,10.133 67.841,9.695 68.798,9.43C72.891,8.29 78.431,7.72 85.416,7.72Z" style="fill:url(#_Linear1);fill-rule:nonzero;"/>
    <path d="M107.624,46.179C108.988,46.179 110.276,45.827 111.488,45.125C112.7,44.422 113.647,43.348 114.329,41.902C115.011,40.456 115.54,37.32 115.917,32.494C116.294,27.667 116.543,24.999 116.666,24.49C117.012,22.902 117.811,22.107 119.064,22.107C120.316,22.107 121.105,22.581 121.431,23.528C121.757,24.475 121.92,26.292 121.92,28.981C121.92,31.669 122.037,34.362 122.271,37.06C122.505,39.759 122.622,41.943 122.622,43.613L122.683,44.987C122.683,46.718 122.403,47.894 121.843,48.516C121.283,49.137 120.55,49.447 119.644,49.447C118.738,49.447 117.888,49.213 117.093,48.745C116.299,48.276 115.729,48.042 115.383,48.042C115.036,48.042 114.4,48.236 113.473,48.622C112.547,49.009 111.61,49.371 110.663,49.707C109.716,50.043 108.448,50.211 106.86,50.211L106.127,50.211C102.868,50.211 100.455,49.101 98.887,46.881C97.319,44.662 96.535,40.874 96.535,35.518L96.535,32.31L96.566,31.516L96.566,29.958C96.566,25.478 96.678,22.963 96.902,22.413C97.227,21.598 98.078,21.191 99.452,21.191C100.827,21.191 101.779,22.016 102.308,23.665C102.512,24.297 102.614,27.392 102.614,32.952C102.614,38.511 102.858,41.892 103.347,43.093C104.182,45.15 105.608,46.179 107.624,46.179Z" style="fill:url(#_Linear2);fill-rule:nonzero;"/>
    <path d="M144.25,32.891C145.553,32.891 146.673,32.595 147.61,32.005C148.119,31.679 148.374,31.027 148.374,30.05L148.374,29.866C148.374,28.4 147.926,27.163 147.03,26.155C146.134,25.147 144.861,24.643 143.211,24.643L142.845,24.643C140.991,24.643 139.286,25.335 137.728,26.72C136.17,28.105 135.391,29.856 135.391,31.974L135.391,32.494C135.391,33.125 135.87,33.441 136.827,33.441L137.132,33.502L138.232,33.502L138.415,33.471L140.095,33.349L140.309,33.318L141.439,33.227C141.582,33.206 141.745,33.186 141.928,33.166C142.111,33.145 142.483,33.094 143.043,33.013C143.603,32.931 144.005,32.891 144.25,32.891ZM142.631,51.188L141.928,51.188C139.871,51.168 137.998,50.791 136.308,50.058C133.07,48.633 130.88,46.189 129.74,42.727C129.109,40.792 128.793,38.837 128.793,36.862L128.793,35.487C128.813,33.43 129.21,31.384 129.984,29.347C131.573,25.233 134.19,22.505 137.835,21.161C139.546,20.55 141.297,20.244 143.089,20.244L143.761,20.244C146.653,20.244 149.056,21.135 150.97,22.917C152.884,24.699 153.842,27.127 153.842,30.203L153.842,30.813C153.842,32.972 153.149,34.489 151.764,35.365C150.705,36.037 148.277,36.648 144.479,37.198C140.681,37.748 138.405,38.145 137.652,38.389C136.43,38.776 135.819,39.336 135.819,40.069C135.819,41.922 136.745,43.47 138.599,44.712C139.678,45.425 141.358,45.782 143.639,45.782C144.576,45.782 146.037,45.502 148.022,44.942C150.008,44.382 151.255,44.102 151.764,44.102C152.966,44.102 153.567,44.712 153.567,45.934C153.567,47.156 152.401,48.337 150.069,49.478C147.737,50.618 145.258,51.188 142.631,51.188Z" style="fill:url(#_Linear3);fill-rule:nonzero;"/>
    <path d="M165.083,5.704L166.091,5.704C167.069,5.704 167.73,5.907 168.077,6.315C168.423,6.722 168.647,7.231 168.749,7.842C168.851,8.453 168.901,9.817 168.901,11.935L168.749,18.35L168.749,19.419L168.688,21.038L168.688,22.107L168.535,28.614L168.535,29.683L168.504,30.752C168.504,34.927 168.55,37.519 168.642,38.527C168.733,39.535 169.054,41.312 169.604,43.857C170.154,46.403 170.429,47.686 170.429,47.706C170.429,48.847 170.189,49.646 169.711,50.104C169.232,50.562 168.372,50.791 167.13,50.791L166.61,50.791C165.266,50.791 164.279,50.323 163.647,49.386C162.711,48.022 162.242,46.077 162.242,43.552L162.242,41.597L162.273,41.077L162.334,39.092L162.364,38.572L162.364,37.534L162.425,35.396L162.425,34.326L162.486,31.608L162.486,30.539L162.578,27.27L162.578,26.201L162.67,22.413L162.67,21.313L162.731,19.175L162.731,18.106L162.792,15.418L162.792,13.31L162.639,9.339C162.639,8.056 162.823,7.129 163.189,6.559C163.556,5.989 164.187,5.704 165.083,5.704Z" style="fill:url(#_Linear4);fill-rule:nonzero;"/>
    <defs>
        <linearGradient id="_Linear1" x1="0" y1="0" x2="1" y2="0" gradientUnits="userSpaceOnUse" gradientTransform="matrix(242.624,-45.184,45.184,242.624,737.227,139.468)"><stop offset="0" style="stop-color:rgb(148,37,192);stop-opacity:1"/><stop offset="1" style="stop-color:rgb(229,99,248);stop-opacity:1"/></linearGradient>
        <linearGradient id="_Linear2" x1="0" y1="0" x2="1" y2="0" gradientUnits="userSpaceOnUse" gradientTransform="matrix(242.624,-45.184,45.184,242.624,737.227,139.468)"><stop offset="0" style="stop-color:rgb(148,37,192);stop-opacity:1"/><stop offset="1" style="stop-color:rgb(229,99,248);stop-opacity:1"/></linearGradient>
        <linearGradient id="_Linear3" x1="0" y1="0" x2="1" y2="0" gradientUnits="userSpaceOnUse" gradientTransform="matrix(242.624,-45.184,45.184,242.624,737.227,139.468)"><stop offset="0" style="stop-color:rgb(148,37,192);stop-opacity:1"/><stop offset="1" style="stop-color:rgb(229,99,248);stop-opacity:1"/></linearGradient>
        <linearGradient id="_Linear4" x1="0" y1="0" x2="1" y2="0" gradientUnits="userSpaceOnUse" gradientTransform="matrix(242.624,-45.184,45.184,242.624,737.227,139.468)"><stop offset="0" style="stop-color:rgb(148,37,192);stop-opacity:1"/><stop offset="1" style="stop-color:rgb(229,99,248);stop-opacity:1"/></linearGradient>
    </defs>
</svg>
